<?xml version="1.0" standalone="no"?>
<!DOCTYPE svg PUBLIC "-//W3C//DTD SVG 1.1//EN" "http://www.w3.org/Graphics/SVG/1.1/DTD/svg11.dtd" >
<svg xmlns="http://www.w3.org/2000/svg">
<metadata></metadata>
<defs>
<font id="dorian_clmbookitalic" horiz-adv-x="0" >
<font-face units-per-em="2048" ascent="1638" descent="-410" />
<missing-glyph horiz-adv-x="942" />
<glyph />
<glyph unicode="&#xd;" horiz-adv-x="681" />
<glyph unicode=" "  horiz-adv-x="942" />
<glyph unicode="&#x09;" horiz-adv-x="942" />
<glyph unicode="&#xa0;" horiz-adv-x="942" />
<glyph unicode="!" horiz-adv-x="780" d="M115 127l192 113l113 -195l-193 -111zM309 524l248 928l152 104l20 -28l-248 -928l-149 -106z" />
<glyph unicode="&#x22;" horiz-adv-x="817" d="M221 948q135 135 180 303q43 160 -10 289l150 107l22 -31q53 -129 10 -289q-45 -168 -180 -303l-149 -106zM631 948q135 135 180 303q43 160 -10 289l149 107l23 -31q53 -129 10 -289q-45 -168 -180 -303l-150 -106z" />
<glyph unicode="#" horiz-adv-x="1912" d="M154 287l100 71h1436l14 -20l-100 -72h-1436zM315 887l101 71h1435l15 -20l-103 -72h-1435zM414 -55l338 1263l151 107l21 -31l-338 -1264l-152 -104zM1116 -55l338 1263l152 107l20 -31l-338 -1264l-151 -104z" />
<glyph unicode="$" horiz-adv-x="1705" d="M231.5 261q10.5 85 83.5 149l105 71l22 -30q-55 -45 -60 -114t36 -118q96 -121 346 -145l141 540q-82 29 -125 46.5t-102.5 46t-97 62.5t-62.5 77q-29 47 -21.5 94t29 83t49.5 56l144 99q8 6 20 12q174 106 353 129l45 168l116 82l17 -23l-58 -221h2q242 0 351 -145 q45 -61 32 -138q-14 -88 -112 -157l-121 -86l-21 30q35 27 61 64t33 84t-28 92q-70 92 -235 115l-119 -455q119 -41 159 -57q205 -78 273 -201q37 -66 30.5 -128t-37 -112.5t-79.5 -83.5l-148 -102q-143 -98 -409 -111l-47 -184l-117 -82l-16 25l61 239q-338 10 -449 166 q-55 78 -44.5 163zM649 1015q-6 -44 23 -85q70 -86 274 -162l111 422q-199 -6 -373 -94q-29 -37 -35 -81zM881 68h26q233 0 389 65q29 35 47.5 77t18.5 92t-29 87q-70 84 -241 156q-35 14 -78 30z" />
<glyph unicode="%" horiz-adv-x="1779" d="M121 -14l1327 1132q-104 -47 -153.5 -66.5t-133.5 -36t-170 -9.5q-10 0 -18 2q-27 -59 -78 -105l-94 -65q23 10 45 22l47 31l16 -23q-12 -8 -22 -16l-119 -82v-2q-88 -59 -193 -59q-143 0 -217 104l-16 23q-47 70 -37 155q12 102 101 178l90 64q-23 -10 -45 -23l-43 -30 l-17 24q10 8 21 17l116 82q88 61 195 61q143 0 215 -104l16 -25q43 -59 41 -135q31 -14 66 -17q86 -6 168 8.5t132 35t148 65.5q20 8 33 14l2 -4l88 74l238 63l8 -34l-1511 -1291l-238 -63zM438 1051q-10 -80 31 -144q74 -94 207 -94q49 0 98 14l-12 19q84 74 96 176 q4 25 2 49q-4 4 -6 8l-14 19q-27 39 -31 90q-76 70 -188 69q-48 0 -95 -14l13 -14q-86 -76 -101 -178zM1004 213q12 102 98 176l92 66q-25 -10 -45 -23l-43 -31l-19 23q10 8 23 16l117 82q88 61 192 62q145 0 217 -105l17 -22q49 -70 39 -156q-14 -102 -99 -176l-94 -68 q23 10 45 23l45 33l17 -23q-10 -10 -21 -18l-119 -82q-88 -61 -192 -62q-143 0 -217 105l-17 24q-49 68 -36 156zM1137 270q-10 -78 30 -143q74 -92 207 -92q49 0 96 14l-10 17q84 76 96 176q10 78 -28 143q-76 94 -209 94q-47 0 -94 -14l12 -16q-88 -74 -100 -179z" />
<glyph unicode="'" horiz-adv-x="407" d="M221 948q135 135 180 303q43 160 -10 289l150 107l22 -31q53 -129 10 -289q-45 -168 -180 -303l-149 -106z" />
<glyph unicode="(" horiz-adv-x="641" d="M193.5 343.5q27.5 272.5 146.5 528.5t336 525l151 104l29 -43q-164 -199 -271.5 -390t-166 -388t-58.5 -397.5t62 -409.5l-152 -104l-20 30q-84 272 -56.5 544.5z" />
<glyph unicode=")" horiz-adv-x="641" d="M-86 -209q162 199 269.5 390.5t166 388t58.5 397t-60 409.5l152 105l20 -31q82 -272 55.5 -544.5t-146.5 -528.5t-335 -524l-151 -105z" />
<glyph unicode="*" horiz-adv-x="1460" d="M217 819l160 92l350 -112l102 383l160 92l19 -33l-127 -475l528 145l18 -30l-159 -93l-381 -106l172 -430l-160 -92l-18 33l-152 380l-301 -321l-160 -92l-18 33l424 452l-438 143z" />
<glyph unicode="+" horiz-adv-x="1679" d="M252 582l133 92h1188l18 -27l-133 -92h-1188zM698 66l275 1024l151 104l21 -31l-275 -1024l-151 -104z" />
<glyph unicode="," horiz-adv-x="618" d="M-43 -451q139 125 182 287q39 147 -18 264l166 117l20 -31q57 -119 17 -266q-43 -160 -181 -285l-166 -114z" />
<glyph unicode="-" horiz-adv-x="1157" d="M199 575l151 105h674l20 -31l-151 -104h-672z" />
<glyph unicode="." horiz-adv-x="698" d="M135 127l193 113l112 -195l-192 -111z" />
<glyph unicode="/" horiz-adv-x="1056" d="M-88 -256l1251 1671l187 86l14 -33l-1251 -1671l-187 -86z" />
<glyph unicode="0" horiz-adv-x="1533" d="M119 567q29 229 221 396l152 106l20 -31q-193 -168 -221 -395q-23 -182 74 -332q76 -100 198.5 -158.5t270.5 -58.5q201 0 376 103l103 71l20 -28q-23 -20 -49 -39l-151 -105v-2q-197 -135 -428 -135q-154 0 -280 62.5t-202 168.5l-22 31q-106 154 -82 346zM309 1038 q23 18 47 37l150 105q197 137 430 137q154 0 279.5 -62.5t201.5 -169.5l21 -30q109 -154 84 -346q-29 -225 -217 -392l-152 -106l-20 31q188 166 217 391q23 182 -74 332q-76 100 -199 158.5t-272 58.5q-201 0 -379 -105l-96 -67z" />
<glyph unicode="1" horiz-adv-x="995" d="M100 780l146 176q358 82 610 261l150 104l22 -31l-338 -1261l-151 -105l-21 31l318 1188l-140 -99q-317 -223 -575 -294z" />
<glyph unicode="2" horiz-adv-x="1421" d="M-29 -47l152 106l94 45q414 201 770 482q283 221 283 456q0 92 -45 152q-113 154 -420 154q-160 0 -301 -68q-66 -70 -78 -156q-10 -68 25 -114q63 -84 245 -99l21 -30l-150 -107q-186 6 -276 135q-20 31 -30.5 74t-4.5 76q18 117 141 203l152 106q78 55 181.5 85 t203.5 30q322 0 448 -180q53 -76 60 -173q8 -115 -57.5 -225t-217.5 -246q-135 -121 -249 -202q-248 -178 -494 -330q422 68 864 -35l21 -31l-152 -104q-518 119 -1032 0q-66 -14 -131 -33z" />
<glyph unicode="3" horiz-adv-x="1429" d="M42 84q5 51 36 98l149 105l23 -31q-39 -57 -39 -122.5t35 -110.5q39 -49 118.5 -83t167.5 -46q242 -37 461 73q119 115 144.5 268.5t-52.5 260.5q-94 127 -327 151l-21 29q201 176 512 467q-82 -20 -109.5 -26.5t-107.5 -25t-115.5 -23.5t-107.5 -14.5t-112 -7t-100 5.5 t-101 17t-86 36.5t-82 55.5l-21 31l152 104q39 -35 84 -58.5t101 -34.5t102.5 -18t117 -1t113.5 10t124 21.5t116.5 24.5t121.5 28.5t111 27.5l23 -30q-305 -287 -537 -490q209 -37 305 -170q59 -86 71.5 -185t-27.5 -202.5t-130 -185.5q-27 -25 -59 -47l-150 -107h-2 q-121 -84 -280.5 -115.5t-313.5 3.5q-188 43 -260 147q-27 35 -40 77t-8 93z" />
<glyph unicode="4" horiz-adv-x="1406" d="M-10 221q135 100 221 171t185.5 170.5t165 191.5t126 217t98.5 268l222 154l20 -31q-47 -172 -114.5 -307t-169 -255t-215 -219.5t-287.5 -226.5q207 49 442.5 61.5t445.5 -16.5l7 -10l102 385l152 105l22 -31l-221 -819l-150 -105l-22 31l106 397l-127 -88 q-233 31 -501.5 11.5t-485.5 -85.5z" />
<glyph unicode="5" horiz-adv-x="1388" d="M20 164l152 104l21 -28q-59 -104 14 -209q53 -76 151.5 -114t216.5 -36q219 0 426 105q115 121 113 274q0 102 -55 182q-66 92 -195 139.5t-295 47.5q-172 0 -325 -51l-23 30q98 133 159.5 289t86.5 295l151 104q109 -51 240 -63t259 4t319 59l20 -28l-151 -107 q-156 -37 -276 -54t-239.5 -15t-207.5 34q-96 -250 -220 -417q147 55 338 55q369 0 517 -215q70 -104 71 -215q0 -94 -48 -181t-132 -147l-150 -104q-8 -6 -14 -11q-104 -68 -241.5 -107.5t-268.5 -39.5q-264 4 -385 178q-92 133 -29 242z" />
<glyph unicode="6" horiz-adv-x="1501" d="M120 472q9 194 128 376q137 213 319 340l152 106q12 8 20 15q98 63 199.5 97t212.5 35t211 -40q68 -29 98 -78q27 -37 25 -95.5t-39 -99.5l-152 -104l-20 29q35 37 43 80t-12 79q-20 37 -70 58q-135 47 -285.5 28.5t-283.5 -92.5q-139 -117 -246 -282 q-113 -172 -127 -354.5t76 -323.5q68 -98 193.5 -143.5t279.5 -32.5q137 10 254 67q43 41 73 90q68 102 79.5 218t-40.5 192q-68 96 -183.5 133t-239 15.5t-236.5 -87.5l-21 31l152 105q121 72 250 90t246.5 -26t187.5 -153q63 -92 58 -210.5t-81 -231.5q-57 -88 -145 -149 l-152 -105v-2l-12 -8q-139 -92 -319 -105q-336 -26 -500 201q-102 143 -93 337z" />
<glyph unicode="7" horiz-adv-x="1318" d="M129 1192l152 104q190 -61 602.5 -68t640.5 68l20 -30l-151 -105q-4 -4 -11 -6q-244 -197 -407 -508q80 -10 145 -33l23 -30l-152 -105q-41 14 -84 23q-92 -211 -151 -473l-152 -105l-20 31q74 315 190 559q-129 4 -268 -29l-21 31l150 105q109 27 213 28 q172 297 426 477q-256 -47 -609.5 -32.5t-514.5 67.5z" />
<glyph unicode="8" horiz-adv-x="1531" d="M111 205q-29 117 30.5 211t192.5 188l151 107q37 25 82 53q15 10 33 20q-98 72 -123 154q-39 129 72 207l151 106q16 10 35 21l21 -31l-64 -43q-82 -78 -43 -184q20 -55 105 -111q18 -12 38.5 -23.5t46 -22.5t43 -19.5t50.5 -19.5t47 -17t53 -19.5t51 -17.5l35 24 q18 12 37 23q16 14 29 27q72 66 110.5 128t48.5 138q10 84 -30 129q-96 113 -303 113q-238 0 -486 -148l-20 31l149 104q248 147 488 148q229 0 332 -140q51 -72 40 -155q-18 -141 -157 -275q-37 -35 -94 -73l-2 -2l-127 -91l30 -10q164 -63 252 -186q115 -158 19 -297 q-43 -61 -109 -107l-149 -106h-2q-172 -121 -482 -121q-403 0 -538 195q-31 43 -43 92zM283 281q16 -63 69.5 -109.5t131 -71t161.5 -35t176 -10.5q240 0 402 74q20 23 39 49q88 127 0 260q-68 98 -230 160q-39 16 -126 46t-147.5 54.5t-109.5 53.5l-37 -27 q-96 -47 -172 -96q-203 -164 -157 -348z" />
<glyph unicode="9" horiz-adv-x="1449" d="M61 10l150 105l22 -29q2 -45 27 -78q35 -51 111 -82q139 -53 276 -42.5t264 77.5q164 141 252 330q53 111 80 234.5t17.5 248.5t-66.5 205q-74 104 -200 151.5t-277 34.5q-119 -10 -219 -57q-41 -41 -70 -90q-63 -104 -63 -208.5t51 -172.5q51 -74 143 -116t197 -42 q152 0 299 90l22 -30l-151 -105q-147 -90 -299 -90q-117 0 -212.5 49t-154.5 135q-135 193 -4 416q51 86 139 148l150 106h2q127 90 299 102q334 27 504 -213q66 -90 81 -217t-10.5 -255t-85.5 -248q-102 -217 -305 -371q-12 -10 -24 -19l-152 -106q-135 -94 -294 -117.5 t-318 35.5q-88 37 -138 109q-39 55 -43 112z" />
<glyph unicode=":" horiz-adv-x="698" d="M115 127l192 113l113 -195l-193 -111zM324 922l192 112l113 -192l-195 -113z" />
<glyph unicode=";" horiz-adv-x="698" d="M-10 -451q139 125 182 287q39 147 -18 264l165 117l21 -31q57 -119 16 -266q-43 -160 -180 -285l-164 -114zM324 922l192 112l113 -192l-195 -113z" />
<glyph unicode="&#x3c;" horiz-adv-x="1196" d="M133 563l131 129l957 512l26 -26l-131 -129l-774 -414l604 -455l27 -26l-131 -129l-682 512z" />
<glyph unicode="=" horiz-adv-x="1679" d="M193 393l151 105h1188l20 -31l-151 -105h-1188zM291 762l151 104h1188l21 -30l-152 -105h-1188z" />
<glyph unicode="&#x3e;" horiz-adv-x="1196" d="M92 51l131 129l774 414l-604 455l-26 26l131 129l682 -512l26 -26l-131 -129l-956 -512z" />
<glyph unicode="?" horiz-adv-x="1175" d="M53 983q25 145 142 227l149 105q121 84 309 84q147 0 250 -39t150 -107l22 -30q37 -53 37 -119q0 -82 -40 -138.5t-114 -107.5l-151 -106q-8 -6 -19 -13q-80 -68 -108 -147q-16 -45 -6 -78h2l20 -31l-151 -104q-8 6 -13 14l-22 29q-25 37 -2 96q37 98 162 187l151 104v2 q8 4 17 10q102 88 102 209q0 55 -27 103q-109 131 -389 131q-127 0 -225 -39q-57 -70 -74 -168q-10 -66 19 -117v-2l20 -29l-149 -106q-8 8 -13 16l-22 29q-39 57 -27 135zM356 127l193 113l110 -195l-192 -111z" />
<glyph unicode="[" horiz-adv-x="786" d="M100 -227l426 1589l201 141h395l21 -30l-201 -142h-324l-378 -1417h448l21 -31l-201 -141h-385z" />
<glyph unicode="\" horiz-adv-x="860" d="M197 1427l118 82l17 -24l497 -1661l-118 -82l-17 25z" />
<glyph unicode="]" horiz-adv-x="786" d="M-176 -227l203 141h323l379 1417h-448l-21 31l201 141h385l20 -30l-424 -1590l-200 -141h-396z" />
<glyph unicode="`" horiz-adv-x="407" d="M303 1237q45 168 180 303l150 107l22 -31q-135 -135 -180 -303q-43 -160 10 -289l-149 -106l-23 30q-53 129 -10 289z" />
<glyph unicode="&#xa3;" horiz-adv-x="1644" d="M43 -47l104 74q135 102 190.5 206.5t57.5 233.5q2 188 73 354t206 285q39 33 78 59l151 107q168 117 369 117q182 0 278 -138q66 -92 43 -207q-16 -94 -100 -151l-131 -90l-4 -4l-21 30l9 7q82 57 90 141q12 94 -41 164q-82 113 -254 112q-158 0 -293 -71h-2 q-135 -119 -206 -285t-73 -354q-2 -133 -61.5 -240.5t-206.5 -216.5q532 129 1061 6l20 -31l-151 -104q-287 68 -572.5 60.5t-590.5 -93.5zM221 559l150 105q293 84 583 16l21 -29l-152 -106q-289 68 -581 -17z" />
<glyph unicode="&#xad;" horiz-adv-x="1157" d="M199 575l151 105h674l20 -31l-151 -104h-672z" />
<glyph unicode="&#x5b0;" d="M-309 -649l166 117l118 -168l-168 -117zM-211 -281l166 117l119 -168l-168 -117z" />
<glyph unicode="&#x5b1;" d="M-623 -281l168 117l117 -168l-168 -117zM-518 -618l166 116l119 -168l-168 -116zM-236 -281l168 117l117 -168l-168 -117zM109 -629l165 117l119 -168l-168 -117zM201 -281l168 117l116 -168l-168 -117z" />
<glyph unicode="&#x5b2;" d="M-670 -309l152 104h627l20 -31l-152 -104h-624zM127 -649l168 117l117 -168l-168 -117zM225 -281l168 117l117 -168l-168 -117z" />
<glyph unicode="&#x5b3;" d="M-666 -317l146 114h626l17 -22l-146 -117h-198l-90 -336l-146 -117l-18 23l100 373l72 57h-346zM127 -649l168 117l117 -168l-168 -117zM225 -281l168 117l117 -168l-168 -117z" />
<glyph unicode="&#x5b4;" d="M-211 -283l168 119l117 -168l-168 -119z" />
<glyph unicode="&#x5b5;" d="M-426 -283l168 119l117 -168l-168 -117zM2 -283l168 119l119 -168l-168 -117z" />
<glyph unicode="&#x5b6;" d="M-426 -281l168 117l117 -168l-168 -117zM-301 -621l166 117l119 -166l-168 -118zM4 -281l168 117l117 -168l-168 -117z" />
<glyph unicode="&#x5b7;" d="M-489 -309l151 106h666l22 -30l-151 -107h-668z" />
<glyph unicode="&#x5b8;" d="M-492 -311l152 106h668l20 -31l-151 -106h-213l-72 -266l-152 -107l-20 31l78 291l73 51h-360z" />
<glyph unicode="&#x5b9;" d="M-143 1430l168 116l118 -168l-168 -116z" />
<glyph unicode="&#x5ba;" d="M-143 1430l168 116l118 -168l-168 -116z" />
<glyph unicode="&#x5bb;" d="M-555 -283l168 119l117 -168l-168 -119zM-258 -461l168 117l117 -166l-168 -119zM35 -639l168 117l116 -168l-167 -117z" />
<glyph unicode="&#x5bc;" d="M-158 643l187 129l129 -186l-187 -129z" />
<glyph unicode="&#x5bd;" d="M-289 -784l135 499l152 107l20 -31l-135 -502l-151 -104z" />
<glyph unicode="&#x5be;" horiz-adv-x="1173" d="M289 1110l151 104q336 -47 693 0l20 -30l-152 -105q-356 -47 -692 0z" />
<glyph unicode="&#x5bf;" d="M-420 1479l152 104h665l23 -31l-152 -104h-665z" />
<glyph unicode="&#x5c0;" horiz-adv-x="471" d="M166 -670v2466l117 117l22 -23v-2465l-117 -117z" />
<glyph unicode="&#x5c1;" d="M1589 1489l168 117l117 -168l-168 -117z" />
<glyph unicode="&#x5c2;" d="M358 1495l168 117l117 -168l-168 -117z" />
<glyph unicode="&#x5c3;" horiz-adv-x="698" d="M105 127l192 113l113 -195l-193 -111zM314 922l192 112l113 -192l-195 -113z" />
<glyph unicode="&#x5c4;" d="M-143 1430l168 116l118 -168l-168 -116z" />
<glyph unicode="&#x5c5;" d="M-143 1430l168 116l118 -168l-168 -116z" />
<glyph unicode="&#x5c7;" d="M-449 -311l152 106h584l20 -31l-149 -104h-170l-105 -391l-151 -105l-21 31l111 414l74 51h-324z" />
<glyph unicode="&#x5d0;" horiz-adv-x="1454" d="M16 -45l439 1659l151 106l21 -30l-195 -736q18 16 39 29l152 107q221 156 483 155q217 0 373 -108l22 -31l-151 -107q-156 109 -373 109q-213 0 -406 -104q-182 -162 -219 -369q-33 -184 64 -334q78 -100 205 -158.5t280 -58.5q258 0 477 149l21 -30l-152 -107 q-217 -147 -475 -147q-391 0 -518 325l-66 -245l-151 -105z" />
<glyph unicode="&#x5d1;" horiz-adv-x="1585" d="M23 -29q53 115 135 172l151 107q66 47 149 53t173 -22.5t172 -64.5t185.5 -81t174.5 -65q84 102 142.5 235t68.5 273q18 205 -88 368q-80 104 -198.5 163.5t-260.5 59.5q-158 0 -303 -75q-201 -182 -223 -441l-149 -106l-23 31q14 150 93 280.5t202 216.5l151 107 q176 123 383 123q145 0 267.5 -62.5t199.5 -173.5v-2h2l21 -31q119 -168 100 -383q-16 -176 -102 -339.5t-199 -262.5q-14 -10 -28 -22l-152 -105q-82 20 -202 71.5t-210 93.5t-197.5 65.5t-189.5 1.5q-41 -49 -59 -127l-152 -105z" />
<glyph unicode="&#x5d2;" horiz-adv-x="1323" d="M38 263.5q15 162.5 117.5 315t272.5 271.5l152 106q57 39 118 76q72 39 174 72q-66 45 -110 110q-86 123 -100 306l151 104l21 -29q10 -170 81 -270q92 -127 279 -164l25 -6l20 -29l-152 -106q-129 2 -275 -34t-243 -91q-20 -12 -41 -25q-137 -111 -223 -252t-99 -286.5 t70 -272.5q86 -121 248 -160.5t336 11.5q193 57 391 182q18 14 35 29l152 104l20 -28q-49 -43 -106 -82l-152 -107q-231 -162 -471 -233q-190 -53 -355 -4t-253 180q-98 150 -83 312.5z" />
<glyph unicode="&#x5d3;" horiz-adv-x="1400" d="M66 750q59 147 241 276l152 104l2 3q248 172 547 172q131 0 234.5 -44t162.5 -126q53 -78 53 -164q0 -154 -153 -262l-103 -74l-104 -74q55 -35 90 -86q57 -84 57 -178q0 -143 -115 -268l-151 -105l-21 31q115 123 115 268q0 84 -41 139q-41 59 -118.5 92t-176.5 35 l-20 29l151 107q109 -2 195 -43l72 57q121 94 147 190q29 113 -35 195q-53 70 -152.5 107.5t-217.5 37.5q-248 0 -469 -125q-125 -106 -170 -219l-150 -104z" />
<glyph unicode="&#x5d4;" horiz-adv-x="1570" d="M125 399l151 107q72 47 145 42t118 -65q55 -86 10 -218t-154 -236l-151 -105l-21 31q115 111 161 230.5t-1 185.5q-39 45 -105.5 43t-132.5 -41zM193 1034l151 107q135 84 273.5 124t308.5 40q348 0 508 -230l22 -28v-3q92 -131 92 -301q0 -152 -59 -307 q-72 -190 -238 -407l-151 -105l-21 31q166 215 238 405q59 156 59 308q0 160 -82 286q-164 215 -497 215q-170 0 -309.5 -39.5t-274.5 -123.5z" />
<glyph unicode="&#x5d5;" horiz-adv-x="595" d="M88 -45l410 1554l151 105l21 -29l-410 -1556l-151 -105z" />
<glyph unicode="&#x5d6;" horiz-adv-x="1302" d="M-88 41l151 106l21 -30q23 -84 93.5 -138.5t168.5 -68.5q219 -33 375 45q59 29 113 59q137 113 207.5 255.5t70.5 287.5q0 172 -91 274.5t-263 126.5q-268 35 -502 -81l-23 30q182 137 295 292t115 298l152 107l20 -31q-2 -123 -87 -256t-226 -258q186 61 385 35 q184 -25 289.5 -149t105.5 -324q0 -164 -87 -313.5t-261 -270.5l-150 -107h-2q-86 -61 -190 -112q-109 -51 -234 -51q-262 0 -385 155q-47 61 -61 119z" />
<glyph unicode="&#x5d7;" horiz-adv-x="1652" d="M37 -45l256 954l149 105l23 -29l-256 -956l-152 -105zM311 1034l152 107q129 84 260 124t291 40q319 0 473 -218l20 -30l2 -2q94 -135 95 -312q0 -152 -58 -307q-68 -190 -225 -407l-150 -105l-22 31q158 215 225 405q57 156 58 308q0 166 -86 297q-154 205 -461 204 q-162 0 -293 -39.5t-258 -123.5z" />
<glyph unicode="&#x5d8;" horiz-adv-x="1429" d="M119 506q2 61 11 120.5t43 155t89 185.5t160.5 201.5t245.5 213.5l8 4l151 107q94 66 231.5 114t262.5 54h18l21 -29l-152 -106h-18q-102 -6 -219 -42t-211 -87q-473 -379 -469 -856q2 -188 90 -316q98 -141 313 -141q170 0 322 80q119 109 186 264q35 100 19.5 176 t-68.5 133l152 105q63 -55 84.5 -146.5t-15.5 -193.5q-86 -201 -258 -322l-151 -104q-180 -127 -402 -127q-221 0 -342 174q-109 152 -102 383z" />
<glyph unicode="&#x5d9;" horiz-adv-x="520" d="M203 582l164 618l151 105l21 -29l-164 -619l-150 -106z" />
<glyph unicode="&#x5da;" horiz-adv-x="1335" d="M123 1034q8 6 18 13l152 106q217 152 469 152q158 0 283.5 -61.5t201.5 -168.5l21 -31q117 -166 80 -378q-49 -281 -293 -471q-14 -10 -82 -61.5t-103.5 -80t-84 -75t-74.5 -82.5q-57 -80 -97 -228l-116 -446l-152 -105l-20 31l116 446q39 145 97 228q27 35 75 81 t83.5 74.5t103 80t82.5 63.5q244 190 293 469q35 203 -70 364q-76 100 -199 157.5t-274 57.5q-240 0 -449 -137l-41 -28z" />
<glyph unicode="&#x5db;" horiz-adv-x="1427" d="M18 154l152 104q164 -174 438 -174q205 0 391 104q197 172 238 402q35 203 -70 364q-76 100 -198.5 157.5t-274.5 57.5q-240 0 -448 -137l-41 -28l-21 30q8 6 19 15l151 104q217 152 469 152q158 0 284 -61.5t202 -168.5l20 -31q117 -166 80 -378q-25 -135 -105.5 -254 t-203.5 -205l-152 -107q-217 -152 -469 -151q-274 0 -440 174z" />
<glyph unicode="&#x5dc;" horiz-adv-x="1054" d="M139 274q14 193 97 362t213 277l149 105l23 -29q-129 -109 -212 -277.5t-98 -361.5q-10 -141 49 -225q47 -66 127 -66q35 0 68 11q66 80 121 213q125 311 143 751q6 158 15.5 258.5t40 234.5t81.5 232q86 160 211 248h2l150 107q74 51 158 75q102 35 216.5 20.5 t204.5 -75.5l21 -31l-152 -104q-88 61 -202.5 74.5t-216.5 -19.5q-41 -12 -80 -31q-80 -78 -140 -190q-51 -96 -81.5 -230.5t-40 -234.5t-15.5 -258q-18 -440 -143 -752q-84 -205 -195 -282l-149 -105q-61 -41 -144 -41q-111 0 -171 102.5t-50 241.5z" />
<glyph unicode="&#x5dd;" horiz-adv-x="1693" d="M-78 -244q283 510 324 1094v24l151 105l21 -31v-22q-41 -584 -324 -1094l-149 -104zM307 983q43 45 92 80l152 104v2q201 139 498 140q201 0 344 -74q129 -66 209 -178q88 -127 88 -287q0 -276 -234 -571q-47 -59 -92 -93l-150 -104l-2 -2q-66 -45 -147 -45 q-135 0 -238.5 53t-195.5 154q-27 31 -74 96q-88 127 -129 305l143 99l21 -29q37 -168 119 -291q20 -27 41 -49q92 -102 195.5 -154.5t238.5 -52.5q39 0 76 8q16 20 22 29q233 295 234 571q0 154 -74 254q-66 92 -182 152q-143 72 -344 71q-238 0 -418 -90q-10 -10 -21 -22 l-151 -105z" />
<glyph unicode="&#x5de;" horiz-adv-x="1632" d="M-8 -45q307 539 330 1141l139 98l-6 14l131 90l22 -28l627 -1114q31 231 87 447t160.5 434t241.5 360l152 106l20 -30q-150 -154 -260 -401t-164.5 -484.5t-76.5 -483.5l-95 -65l7 -8l-133 -90l-23 30l-659 1170q-29 -586 -328 -1112l-152 -105z" />
<glyph unicode="&#x5df;" horiz-adv-x="606" d="M-133 -858l551 2058l151 105l21 -29l-551 -2058l-152 -107z" />
<glyph unicode="&#x5e0;" horiz-adv-x="581" d="M-1491 -510q0 86 47 137l152 107l20 -31q-47 -51 -47 -137q0 -78 39 -129q66 -90 212 -134t277 -44q252 0 480 123q12 6 26 14q147 125 250 301q100 172 178 467l275 1036l151 105l21 -29l-275 -1036q-78 -295 -178 -469q-129 -219 -323 -357l-152 -106q-49 -35 -102 -64 q-229 -121 -480 -121q-145 0 -293.5 48.5t-224.5 156.5q-53 76 -53 162z" />
<glyph unicode="&#x5e1;" horiz-adv-x="1568" d="M123 551q18 117 67.5 195.5t153.5 168.5l152 105l20 -29q-104 -90 -153.5 -169t-67.5 -195q-29 -190 65 -338q72 -96 192 -150.5t261 -54.5q186 0 367 100q186 164 223 365q45 231 -70 407q-76 100 -198.5 156.5t-278.5 56.5q-262 0 -483 -147l-37 -27l-23 31q10 6 19 14 l151 105q229 160 502 160q162 0 288 -60.5t202 -167.5l20 -30q127 -180 80 -422q-23 -121 -101.5 -230.5t-195.5 -191.5l-150 -105q-213 -150 -444 -149q-147 0 -270 58.5t-195 160.5l-22 31q-104 152 -74 352z" />
<glyph unicode="&#x5e2;" horiz-adv-x="1425" d="M141 308q0 128 50.5 236.5t138.5 211.5q154 180 344 325q-174 55 -400 88l-20 31l152 105q244 -35 425 -97l15 -6l49 35q291 205 655 326l21 -31l-152 -105q-285 -96 -526 -241q211 -84 332 -209q27 -27 49 -57l20 -31q80 -113 82 -251t-73 -267q-84 -145 -203 -230h-2 l-150 -106q-166 -115 -360 -115q-135 0 -227.5 34t-147.5 120q-72 106 -72 234zM325 497.5q-40 -167.5 37 -304.5q86 -137 357 -138q139 0 280 70q74 70 131 170q74 125 74 258t-71 246q-16 23 -37 43q-129 131 -357 217l-10 2q-131 -115 -227 -230q-137 -166 -177 -333.5z " />
<glyph unicode="&#x5e3;" horiz-adv-x="1277" d="M124 759.5q-3 131.5 59.5 256.5t176.5 205l152 106l2 2q72 49 147.5 79t157.5 41t144.5 14t159 3t151.5 4q137 403 360 570q6 4 13 8l151 106q102 72 200.5 74t147.5 -67q33 -47 35 -100.5t-20.5 -105.5t-67.5 -106.5t-102.5 -103.5t-126.5 -100l-152 -105l-2 -2 q-88 -61 -178 -108q-68 -35 -141 -58l-29 -96q-23 -84 -68 -274.5t-91 -349t-103 -294.5q-82 -188 -203 -272l-2 -2l-150 -104q-80 -55 -165 -56q-98 0 -152 76q-59 88 -18 221q43 139 178 234l2 2l149 104q20 14 45 31l23 -31l-82 -57q-57 -47 -102 -119t-60 -152 q-12 -78 21 -120q41 -53 127 -54q43 0 86 15q76 84 131 209q57 135 103 293.5t91 349t68 274.5l41 141l-10 -2q-80 -8 -240 -7t-281.5 -16.5t-232.5 -72.5q-131 -127 -162 -306t53 -314q14 -18 33 -37l21 -29l-152 -106q-23 23 -43 51l-20 28q-70 98 -73 229.5zM1425 1487 l17 2q117 25 219 78q51 25 102 57q141 111 210 227.5t16 194.5q-31 43 -104 45t-144 -31q-189 -180 -316 -573z" />
<glyph unicode="&#x5e4;" horiz-adv-x="1509" d="M88 399q23 127 119 209q18 14 37 29l151 106h2q150 104 340 105q111 0 189 -68l20 -30l-151 -105q-78 68 -187 68q-135 0 -258 -58q-72 -78 -90 -180q-23 -131 41 -217q59 -82 165.5 -127t240.5 -45q213 0 405 107q197 172 236 397q37 209 -70 358q-76 104 -203 162.5 t-282 58.5q-219 0 -418 -112l-131 -90l-21 28q31 27 64 49l151 107q221 156 484 156q160 0 290.5 -63.5t210.5 -170.5q135 -186 97 -407q-41 -231 -244 -406q-31 -27 -64 -49l-151 -107q-223 -156 -483 -155q-279 0 -422 184q-92 119 -68 266z" />
<glyph unicode="&#x5e5;" horiz-adv-x="1257" d="M106.5 1234q14.5 159 116.5 306l150 107l22 -31q-92 -135 -113.5 -288.5t42.5 -248.5q53 -78 190 -98q199 -29 469 53l45 166q154 557 512 807l152 107q59 43 127 75q104 49 190 34t129 -79q49 -84 20.5 -191.5t-116.5 -227t-198.5 -225t-225.5 -185.5l-152 -107 q-8 -6 -14 -10q-164 -113 -324 -190q-111 -416 -213 -650q-80 -188 -202 -272v-2l-152 -104q-78 -55 -164 -56q-98 0 -153 78q-47 68 -37 156t67.5 166.5t131.5 130.5q23 16 48 33.5t56 39t47 33.5q20 14 45 31l21 -31l-82 -57q-59 -49 -106.5 -123t-56.5 -150.5t23 -117.5 q39 -53 125 -54q45 0 88 15q76 84 129 209q102 236 213 651l-18 -8q-319 -115 -553 -80q-145 23 -217 123q-76 106 -61.5 265zM1151 1096l20 8q168 72 342 186q258 199 395.5 421t69.5 321q-33 51 -119.5 57t-168.5 -35q-27 -12 -52 -26q-301 -254 -438 -752z" />
<glyph unicode="&#x5e6;" horiz-adv-x="1402" d="M-35 244l150 106l22 -31q8 -55 35 -90q66 -88 199 -129t250 -41q242 0 405 80q8 8 16 17q166 176 177 411q4 127 -58 221q-18 27 -41 48q-133 117 -311 116q-74 0 -127 -14l-20 31l149 104q53 14 127 14q102 0 186 -36l62 51q121 98 121 231q0 72 -41 123 q-86 113 -269 113q-156 0 -299 -74q-113 -104 -151 -215l-152 -106l-20 30q25 70 83 142.5t140 130.5l152 104l2 2q174 121 374 121q195 0 295 -137q55 -74 56 -160q0 -133 -119 -231l-78 -64l-115 -80q43 -25 86 -61q39 -35 66 -74q80 -113 74 -256q-8 -233 -177 -410 q-39 -41 -86 -73l-151 -107q-182 -127 -485 -127q-129 0 -268.5 47t-207.5 148q-43 61 -51 125z" />
<glyph unicode="&#x5e7;" horiz-adv-x="1558" d="M-20 -858q106 166 166.5 339t83 318.5t44 287.5t81 298t165.5 299l152 107l20 -31q-106 -143 -165.5 -299t-81 -299.5t-44 -288.5t-83 -318t-166.5 -337l-152 -107zM88 750q66 162 248 290l151 105q227 160 510 160q156 0 283 -61.5t203 -168.5l20 -31q117 -166 78 -378 q-23 -135 -104.5 -254t-202.5 -205l-152 -107h-2q-215 -152 -469 -151l-20 31l151 104q203 0 392 104q197 172 235 402q37 203 -68 364q-76 100 -199.5 157.5t-273.5 57.5q-233 0 -432 -110q-127 -111 -176 -234l-151 -104z" />
<glyph unicode="&#x5e8;" horiz-adv-x="1490" d="M111 1034l151 107q135 84 273.5 124t308.5 40q348 0 508 -230l22 -28v-3q92 -131 92 -301q0 -152 -59 -307q-72 -190 -238 -407l-151 -105l-21 31q166 215 238 405q59 156 59 308q0 160 -82 286q-164 215 -497 215q-170 0 -309.5 -39.5t-274.5 -123.5z" />
<glyph unicode="&#x5e9;" horiz-adv-x="1429" d="M156 633q51 180 157.5 332.5t253.5 255.5l150 106h2q188 131 409 160q121 14 214.5 -14.5t144.5 -100.5q41 -59 45 -137t-29 -150q-63 -137 -227 -251l-152 -105v-2q-27 -18 -55 -35q-303 -180 -672 -186l-22 31l151 104q356 6 650 174q137 117 176 258q14 47 10 101.5 t-31 87.5q-94 117 -332 88q-176 -20 -333 -111q-246 -209 -338 -530q-78 -272 39 -441q63 -88 172.5 -136t240.5 -48q217 0 406 125l37 24l20 -28q-8 -8 -18 -15l-150 -104l-2 -2q-195 -135 -422 -135q-143 0 -255.5 54t-184.5 155q-137 197 -55 475z" />
<glyph unicode="&#x5ea;" horiz-adv-x="1867" d="M-199 49l152 107l10 -15q53 -59 189 -59q63 0 133 29q96 109 147 301q78 293 117 555l151 104l21 -29q-39 -262 -117 -555q-68 -260 -217 -364l-151 -105q-14 -10 -29 -20q-92 -51 -187 -51q-135 0 -192 65zM344 965q23 16 45 32l152 107q287 201 680 201q348 0 510 -230 l20 -28q92 -133 92 -304q0 -152 -59 -307q-72 -190 -238 -407l-151 -105l-21 31q166 215 238 405q59 156 59 308q0 160 -82 286q-164 215 -497 215q-360 0 -635 -170l-90 -65z" />
<glyph unicode="&#x5f0;" horiz-adv-x="1191" d="M88 -45l410 1554l151 105l21 -29l-410 -1556l-151 -105zM684 -45l410 1554l151 105l21 -29l-410 -1556l-151 -105z" />
<glyph unicode="&#x5f1;" horiz-adv-x="1116" d="M203 582l164 618l151 105l21 -29l-164 -619l-150 -106zM608 -45l410 1554l151 105l21 -29l-410 -1556l-151 -105z" />
<glyph unicode="&#x5f2;" horiz-adv-x="1040" d="M203 582l164 618l151 105l21 -29l-164 -619l-150 -106zM723 582l164 618l151 105l21 -29l-164 -619l-150 -106z" />
<glyph unicode="&#x5f3;" horiz-adv-x="407" d="M221 948q135 135 180 303q43 160 -10 289l150 107l22 -31q53 -129 10 -289q-45 -168 -180 -303l-149 -106z" />
<glyph unicode="&#x5f4;" horiz-adv-x="817" d="M221 948q135 135 180 303q43 160 -10 289l150 107l22 -31q53 -129 10 -289q-45 -168 -180 -303l-149 -106zM631 948q135 135 180 303q43 160 -10 289l149 107l23 -31q53 -129 10 -289q-45 -168 -180 -303l-150 -106z" />
<glyph unicode="&#x2000;" horiz-adv-x="1115" />
<glyph unicode="&#x2001;" horiz-adv-x="2230" />
<glyph unicode="&#x2002;" horiz-adv-x="1115" />
<glyph unicode="&#x2003;" horiz-adv-x="2230" />
<glyph unicode="&#x2004;" horiz-adv-x="743" />
<glyph unicode="&#x2005;" horiz-adv-x="557" />
<glyph unicode="&#x2006;" horiz-adv-x="371" />
<glyph unicode="&#x2007;" horiz-adv-x="371" />
<glyph unicode="&#x2008;" horiz-adv-x="278" />
<glyph unicode="&#x2009;" horiz-adv-x="446" />
<glyph unicode="&#x200a;" horiz-adv-x="123" />
<glyph unicode="&#x200c;" />
<glyph unicode="&#x200d;" />
<glyph unicode="&#x200e;" />
<glyph unicode="&#x200f;" />
<glyph unicode="&#x2010;" horiz-adv-x="1157" d="M199 575l151 105h674l20 -31l-151 -104h-672z" />
<glyph unicode="&#x2011;" horiz-adv-x="1157" d="M199 575l151 105h674l20 -31l-151 -104h-672z" />
<glyph unicode="&#x2012;" horiz-adv-x="1157" d="M199 575l151 105h674l20 -31l-151 -104h-672z" />
<glyph unicode="&#x2013;" horiz-adv-x="1558" d="M119 575l149 105h1153l21 -31l-152 -104h-1151z" />
<glyph unicode="&#x2014;" horiz-adv-x="2172" d="M119 575l149 105h1768l20 -31l-151 -104h-1766z" />
<glyph unicode="&#x2015;" horiz-adv-x="2787" d="M119 575l149 105h2382l21 -31l-152 -104h-2380z" />
<glyph unicode="&#x2018;" horiz-adv-x="438" d="M230 1237q45 168 180 303l149 106l23 -30q-135 -135 -180 -303q-43 -160 10 -289l-150 -107l-22 31q-53 129 -10 289z" />
<glyph unicode="&#x2019;" horiz-adv-x="438" d="M211 948q135 135 180 303q43 160 -10 289l150 107l22 -31q53 -129 10 -289q-45 -168 -180 -303l-149 -106z" />
<glyph unicode="&#x201a;" horiz-adv-x="438" d="M-39 -486q135 135 180 303q43 160 -10 289l150 107l22 -31q53 -129 10 -289q-45 -168 -180 -303l-149 -106z" />
<glyph unicode="&#x201c;" horiz-adv-x="866" d="M229 1237q45 168 180 303l150 106l22 -30q-135 -135 -180 -303q-43 -160 10 -289l-149 -107l-23 31q-53 129 -10 289zM639 1237q45 168 180 303l149 106l23 -30q-135 -135 -180 -303q-43 -160 10 -289l-150 -107l-22 31q-53 129 -10 289z" />
<glyph unicode="&#x201d;" horiz-adv-x="866" d="M211 948q135 135 180 303q43 160 -10 289l150 107l22 -31q53 -129 10 -289q-45 -168 -180 -303l-149 -106zM621 948q135 135 180 303q43 160 -10 289l149 107l23 -31q53 -129 10 -289q-45 -168 -180 -303l-150 -106z" />
<glyph unicode="&#x201e;" horiz-adv-x="866" d="M-39 -486q135 135 180 303q43 160 -10 289l150 107l22 -31q53 -129 10 -289q-45 -168 -180 -303l-149 -106zM371 -486q135 135 180 303q43 160 -10 289l149 107l23 -31q53 -129 10 -289q-45 -168 -180 -303l-150 -106z" />
<glyph unicode="&#x2026;" horiz-adv-x="2193" d="M145 127l193 113l112 -195l-192 -111zM852 127l193 113l112 -195l-192 -111zM1558 127l193 113l112 -195l-192 -111z" />
<glyph unicode="&#x202f;" horiz-adv-x="446" />
<glyph unicode="&#x205f;" horiz-adv-x="557" />
<glyph unicode="&#x20ac;" horiz-adv-x="1718" d="M111 449l135 92h33q4 18 8 37q16 55 41 110h-2l-19 27l55 39q94 156 256 268l152 106q240 168 510 168q262 0 414 -161l20 -31l-149 -107q-152 164 -416 164q-221 0 -432 -119q-121 -104 -193 -235h875l18 -27l-135 -92h-811q-6 -18 -10 -37q-16 -55 -21 -110h762l19 -27 l-136 -92h-639q16 -88 64 -160q70 -92 183.5 -143t256.5 -51q260 0 496 159l27 19l22 -31q-8 -4 -14 -8l-152 -107q-240 -168 -510 -168q-147 0 -265 55.5t-185 153.5l-21 29l-2 2q-76 109 -78 250h-139z" />
<glyph unicode="&#xe000;" horiz-adv-x="1024" d="M0 0z" />
<glyph unicode="&#xfb1d;" horiz-adv-x="520" d="M-57 -283l168 119l117 -168l-168 -119zM203 582l164 618l151 105l21 -29l-164 -619l-150 -106z" />
<glyph unicode="&#xfb1e;" d="M-406 1499l152 107q168 -51 338 -46t334 58l20 -31l-149 -104q-164 -55 -334 -59.5t-340 44.5z" />
<glyph unicode="&#xfb1f;" horiz-adv-x="1040" d="M156 262l106 106h465l16 -30l-106 -107h-467zM203 582l164 618l151 105l21 -29l-164 -619l-150 -106zM723 582l164 618l151 105l21 -29l-164 -619l-150 -106z" />
<glyph unicode="&#xfb20;" horiz-adv-x="1425" d="M141 308q0 128 50.5 236.5t138.5 211.5q154 180 344 325q-174 55 -400 88l-20 31l152 105q244 -35 425 -97l15 -6l49 35q291 205 655 326l21 -31l-152 -105q-285 -96 -526 -241q211 -84 332 -209q27 -27 49 -57l20 -31q80 -113 82 -251t-73 -267q-84 -145 -203 -230h-2 l-150 -106q-166 -115 -360 -115q-135 0 -227.5 34t-147.5 120q-72 106 -72 234zM325 497.5q-40 -167.5 37 -304.5q86 -137 357 -138q139 0 280 70q74 70 131 170q74 125 74 258t-71 246q-16 23 -37 43q-129 131 -357 217l-10 2q-131 -115 -227 -230q-137 -166 -177 -333.5z " />
<glyph unicode="&#xfb29;" horiz-adv-x="1679" d="M242 545l133 92h477l121 453l151 104l21 -31l-141 -526h559l20 -27l-135 -92h-1188z" />
<glyph unicode="&#xfb2a;" horiz-adv-x="1429" d="M156 633q51 180 157.5 332.5t253.5 255.5l150 106h2q188 131 409 160q121 14 214.5 -14.5t144.5 -100.5q41 -59 45 -137t-29 -150q-63 -137 -227 -251l-152 -105v-2q-27 -18 -55 -35q-303 -180 -672 -186l-22 31l151 104q356 6 650 174q137 117 176 258q14 47 10 101.5 t-31 87.5q-94 117 -332 88q-176 -20 -333 -111q-246 -209 -338 -530q-78 -272 39 -441q63 -88 172.5 -136t240.5 -48q217 0 406 125l37 24l20 -28q-8 -8 -18 -15l-150 -104l-2 -2q-195 -135 -422 -135q-143 0 -255.5 54t-184.5 155q-137 197 -55 475zM1589 1489l168 117 l117 -168l-168 -117z" />
<glyph unicode="&#xfb2b;" horiz-adv-x="1429" d="M156 633q51 180 157.5 332.5t253.5 255.5l150 106h2q188 131 409 160q121 14 214.5 -14.5t144.5 -100.5q41 -59 45 -137t-29 -150q-63 -137 -227 -251l-152 -105v-2q-27 -18 -55 -35q-303 -180 -672 -186l-22 31l151 104q356 6 650 174q137 117 176 258q14 47 10 101.5 t-31 87.5q-94 117 -332 88q-176 -20 -333 -111q-246 -209 -338 -530q-78 -272 39 -441q63 -88 172.5 -136t240.5 -48q217 0 406 125l37 24l20 -28q-8 -8 -18 -15l-150 -104l-2 -2q-195 -135 -422 -135q-143 0 -255.5 54t-184.5 155q-137 197 -55 475zM358 1495l168 117 l117 -168l-168 -117z" />
<glyph unicode="&#xfb2c;" horiz-adv-x="1429" d="M156 633q51 180 157.5 332.5t253.5 255.5l150 106h2q188 131 409 160q121 14 214.5 -14.5t144.5 -100.5q41 -59 45 -137t-29 -150q-63 -137 -227 -251l-152 -105v-2q-27 -18 -55 -35q-303 -180 -672 -186l-22 31l151 104q356 6 650 174q137 117 176 258q14 47 10 101.5 t-31 87.5q-94 117 -332 88q-176 -20 -333 -111q-246 -209 -338 -530q-78 -272 39 -441q63 -88 172.5 -136t240.5 -48q217 0 406 125l37 24l20 -28q-8 -8 -18 -15l-150 -104l-2 -2q-195 -135 -422 -135q-143 0 -255.5 54t-184.5 155q-137 197 -55 475zM747 1044l187 129 l129 -186l-187 -129zM1589 1489l168 117l117 -168l-168 -117z" />
<glyph unicode="&#xfb2d;" horiz-adv-x="1429" d="M156 633q51 180 157.5 332.5t253.5 255.5l150 106h2q188 131 409 160q121 14 214.5 -14.5t144.5 -100.5q41 -59 45 -137t-29 -150q-63 -137 -227 -251l-152 -105v-2q-27 -18 -55 -35q-303 -180 -672 -186l-22 31l151 104q356 6 650 174q137 117 176 258q14 47 10 101.5 t-31 87.5q-94 117 -332 88q-176 -20 -333 -111q-246 -209 -338 -530q-78 -272 39 -441q63 -88 172.5 -136t240.5 -48q217 0 406 125l37 24l20 -28q-8 -8 -18 -15l-150 -104l-2 -2q-195 -135 -422 -135q-143 0 -255.5 54t-184.5 155q-137 197 -55 475zM358 1495l168 117 l117 -168l-168 -117zM747 1044l187 129l129 -186l-187 -129z" />
<glyph unicode="&#xfb2e;" horiz-adv-x="1454" d="M16 -45l439 1659l151 106l21 -30l-195 -736q18 16 39 29l152 107q221 156 483 155q217 0 373 -108l22 -31l-151 -107q-156 109 -373 109q-213 0 -406 -104q-182 -162 -219 -369q-33 -184 64 -334q78 -100 205 -158.5t280 -58.5q258 0 477 149l21 -30l-152 -107 q-217 -147 -475 -147q-391 0 -518 325l-66 -245l-151 -105zM207 -309l151 106h666l22 -30l-151 -107h-668z" />
<glyph unicode="&#xfb2f;" horiz-adv-x="1454" d="M16 -45l439 1659l151 106l21 -30l-195 -736q18 16 39 29l152 107q221 156 483 155q217 0 373 -108l22 -31l-151 -107q-156 109 -373 109q-213 0 -406 -104q-182 -162 -219 -369q-33 -184 64 -334q78 -100 205 -158.5t280 -58.5q258 0 477 149l21 -30l-152 -107 q-217 -147 -475 -147q-391 0 -518 325l-66 -245l-151 -105zM204 -311l152 106h668l20 -31l-151 -106h-213l-72 -266l-152 -107l-20 31l78 291l73 51h-360z" />
<glyph unicode="&#xfb30;" horiz-adv-x="1454" d="M16 -45l439 1659l151 106l21 -30l-195 -736q18 16 39 29l152 107q221 156 483 155q217 0 373 -108l22 -31l-151 -107q-156 109 -373 109q-213 0 -406 -104q-182 -162 -219 -369q-33 -184 64 -334q78 -100 205 -158.5t280 -58.5q258 0 477 149l21 -30l-152 -107 q-217 -147 -475 -147q-391 0 -518 325l-66 -245l-151 -105zM737 643l187 129l129 -186l-187 -129z" />
<glyph unicode="&#xfb31;" horiz-adv-x="1585" d="M23 -29q53 115 135 172l151 107q66 47 149 53t173 -22.5t172 -64.5t185.5 -81t174.5 -65q84 102 142.5 235t68.5 273q18 205 -88 368q-80 104 -198.5 163.5t-260.5 59.5q-158 0 -303 -75q-201 -182 -223 -441l-149 -106l-23 31q14 150 93 280.5t202 216.5l151 107 q176 123 383 123q145 0 267.5 -62.5t199.5 -173.5v-2h2l21 -31q119 -168 100 -383q-16 -176 -102 -339.5t-199 -262.5q-14 -10 -28 -22l-152 -105q-82 20 -202 71.5t-210 93.5t-197.5 65.5t-189.5 1.5q-41 -49 -59 -127l-152 -105zM698 643l187 129l129 -186l-187 -129z" />
<glyph unicode="&#xfb32;" horiz-adv-x="1323" d="M38 263.5q15 162.5 117.5 315t272.5 271.5l152 106q57 39 118 76q72 39 174 72q-66 45 -110 110q-86 123 -100 306l151 104l21 -29q10 -170 81 -270q92 -127 279 -164l25 -6l20 -29l-152 -106q-129 2 -275 -34t-243 -91q-20 -12 -41 -25q-137 -111 -223 -252t-99 -286.5 t70 -272.5q86 -121 248 -160.5t336 11.5q193 57 391 182q18 14 35 29l152 104l20 -28q-49 -43 -106 -82l-152 -107q-231 -162 -471 -233q-190 -53 -355 -4t-253 180q-98 150 -83 312.5zM600 446l187 129l129 -186l-187 -129z" />
<glyph unicode="&#xfb33;" horiz-adv-x="1400" d="M66 750q59 147 241 276l152 104l2 3q248 172 547 172q131 0 234.5 -44t162.5 -126q53 -78 53 -164q0 -154 -153 -262l-103 -74l-104 -74q55 -35 90 -86q57 -84 57 -178q0 -143 -115 -268l-151 -105l-21 31q115 123 115 268q0 84 -41 139q-41 59 -118.5 92t-176.5 35 l-20 29l151 107q109 -2 195 -43l72 57q121 94 147 190q29 113 -35 195q-53 70 -152.5 107.5t-217.5 37.5q-248 0 -469 -125q-125 -106 -170 -219l-150 -104zM528 879l187 129l129 -186l-187 -129z" />
<glyph unicode="&#xfb34;" horiz-adv-x="1570" d="M125 399l151 107q72 47 145 42t118 -65q55 -86 10 -218t-154 -236l-151 -105l-21 31q115 111 161 230.5t-1 185.5q-39 45 -105.5 43t-132.5 -41zM193 1034l151 107q135 84 273.5 124t308.5 40q348 0 508 -230l22 -28v-3q92 -131 92 -301q0 -152 -59 -307 q-72 -190 -238 -407l-151 -105l-21 31q166 215 238 405q59 156 59 308q0 160 -82 286q-164 215 -497 215q-170 0 -309.5 -39.5t-274.5 -123.5zM786 643l187 129l129 -186l-187 -129z" />
<glyph unicode="&#xfb35;" horiz-adv-x="841" d="M88 643l187 129l129 -186l-187 -129zM334 -45l410 1554l151 105l21 -29l-410 -1556l-151 -105z" />
<glyph unicode="&#xfb36;" horiz-adv-x="1302" d="M-88 41l151 106l21 -30q23 -84 93.5 -138.5t168.5 -68.5q219 -33 375 45q59 29 113 59q137 113 207.5 255.5t70.5 287.5q0 172 -91 274.5t-263 126.5q-268 35 -502 -81l-23 30q182 137 295 292t115 298l152 107l20 -31q-2 -123 -87 -256t-226 -258q186 61 385 35 q184 -25 289.5 -149t105.5 -324q0 -164 -87 -313.5t-261 -270.5l-150 -107h-2q-86 -61 -190 -112q-109 -51 -234 -51q-262 0 -385 155q-47 61 -61 119zM415 473l187 129l129 -186l-187 -129z" />
<glyph unicode="&#xfb37;" horiz-adv-x="1652" d="M37 -45l256 954l149 105l23 -29l-256 -956l-152 -105zM311 1034l152 107q129 84 260 124t291 40q319 0 473 -218l20 -30l2 -2q94 -135 95 -312q0 -152 -58 -307q-68 -190 -225 -407l-150 -105l-22 31q158 215 225 405q57 156 58 308q0 166 -86 297q-154 205 -461 204 q-162 0 -293 -39.5t-258 -123.5zM727 643l187 129l129 -186l-187 -129z" />
<glyph unicode="&#xfb38;" horiz-adv-x="1429" d="M119 506q2 61 11 120.5t43 155t89 185.5t160.5 201.5t245.5 213.5l8 4l151 107q94 66 231.5 114t262.5 54h18l21 -29l-152 -106h-18q-102 -6 -219 -42t-211 -87q-473 -379 -469 -856q2 -188 90 -316q98 -141 313 -141q170 0 322 80q119 109 186 264q35 100 19.5 176 t-68.5 133l152 105q63 -55 84.5 -146.5t-15.5 -193.5q-86 -201 -258 -322l-151 -104q-180 -127 -402 -127q-221 0 -342 174q-109 152 -102 383zM598 643l187 129l129 -186l-187 -129z" />
<glyph unicode="&#xfb39;" horiz-adv-x="724" d="M116 917l187 129l129 -186l-187 -129zM408 582l164 618l151 105l21 -29l-164 -619l-150 -106z" />
<glyph unicode="&#xfb3a;" horiz-adv-x="1335" d="M123 1034q8 6 18 13l152 106q217 152 469 152q158 0 283.5 -61.5t201.5 -168.5l21 -31q117 -166 80 -378q-49 -281 -293 -471q-14 -10 -82 -61.5t-103.5 -80t-84 -75t-74.5 -82.5q-57 -80 -97 -228l-116 -446l-152 -105l-20 31l116 446q39 145 97 228q27 35 75 81 t83.5 74.5t103 80t82.5 63.5q244 190 293 469q35 203 -70 364q-76 100 -199 157.5t-274 57.5q-240 0 -449 -137l-41 -28zM487 643l187 129l129 -186l-187 -129z" />
<glyph unicode="&#xfb3b;" horiz-adv-x="1427" d="M18 154l152 104q164 -174 438 -174q205 0 391 104q197 172 238 402q35 203 -70 364q-76 100 -198.5 157.5t-274.5 57.5q-240 0 -448 -137l-41 -28l-21 30q8 6 19 15l151 104q217 152 469 152q158 0 284 -61.5t202 -168.5l20 -31q117 -166 80 -378q-25 -135 -105.5 -254 t-203.5 -205l-152 -107q-217 -152 -469 -151q-274 0 -440 174zM528 643l187 129l129 -186l-187 -129z" />
<glyph unicode="&#xfb3c;" horiz-adv-x="1054" d="M139 274q14 193 97 362t213 277l149 105l23 -29q-129 -109 -212 -277.5t-98 -361.5q-10 -141 49 -225q47 -66 127 -66q35 0 68 11q66 80 121 213q125 311 143 751q6 158 15.5 258.5t40 234.5t81.5 232q86 160 211 248h2l150 107q74 51 158 75q102 35 216.5 20.5 t204.5 -75.5l21 -31l-152 -104q-88 61 -202.5 74.5t-216.5 -19.5q-41 -12 -80 -31q-80 -78 -140 -190q-51 -96 -81.5 -230.5t-40 -234.5t-15.5 -258q-18 -440 -143 -752q-84 -205 -195 -282l-149 -105q-61 -41 -144 -41q-111 0 -171 102.5t-50 241.5zM387 555l187 129 l129 -186l-187 -129z" />
<glyph unicode="&#xfb3d;" horiz-adv-x="1693" d="M-78 -244q283 510 324 1094v24l151 105l21 -31v-22q-41 -584 -324 -1094l-149 -104zM307 983q43 45 92 80l152 104v2q201 139 498 140q201 0 344 -74q129 -66 209 -178q88 -127 88 -287q0 -276 -234 -571q-47 -59 -92 -93l-150 -104l-2 -2q-66 -45 -147 -45 q-135 0 -238.5 53t-195.5 154q-27 31 -74 96q-88 127 -129 305l143 99l21 -29q37 -168 119 -291q20 -27 41 -49q92 -102 195.5 -154.5t238.5 -52.5q39 0 76 8q16 20 22 29q233 295 234 571q0 154 -74 254q-66 92 -182 152q-143 72 -344 71q-238 0 -418 -90q-10 -10 -21 -22 l-151 -105zM891 696l187 129l129 -186l-187 -129z" />
<glyph unicode="&#xfb3e;" horiz-adv-x="1632" d="M-8 -45q307 539 330 1141l139 98l-6 14l131 90l22 -28l627 -1114q31 231 87 447t160.5 434t241.5 360l152 106l20 -30q-150 -154 -260 -401t-164.5 -484.5t-76.5 -483.5l-95 -65l7 -8l-133 -90l-23 30l-659 1170q-29 -586 -328 -1112l-152 -105zM436 479l187 129 l129 -186l-187 -129z" />
<glyph unicode="&#xfb3f;" horiz-adv-x="606" d="M-133 -858l551 2058l151 105l21 -29l-551 -2058l-152 -107z" />
<glyph unicode="&#xfb40;" horiz-adv-x="827" d="M-1245 -510q0 86 47 137l152 107l20 -31q-47 -51 -47 -137q0 -78 39 -129q66 -90 212 -134t277 -44q252 0 480 123q12 6 26 14q147 125 250 301q100 172 178 467l275 1036l151 105l21 -29l-275 -1036q-78 -295 -178 -469q-129 -219 -323 -357l-152 -106q-49 -35 -102 -64 q-229 -121 -480 -121q-145 0 -293.5 48.5t-224.5 156.5q-53 76 -53 162zM88 643l187 129l129 -186l-187 -129z" />
<glyph unicode="&#xfb41;" horiz-adv-x="1568" d="M123 551q18 117 67.5 195.5t153.5 168.5l152 105l20 -29q-104 -90 -153.5 -169t-67.5 -195q-29 -190 65 -338q72 -96 192 -150.5t261 -54.5q186 0 367 100q186 164 223 365q45 231 -70 407q-76 100 -198.5 156.5t-278.5 56.5q-262 0 -483 -147l-37 -27l-23 31q10 6 19 14 l151 105q229 160 502 160q162 0 288 -60.5t202 -167.5l20 -30q127 -180 80 -422q-23 -121 -101.5 -230.5t-195.5 -191.5l-150 -105q-213 -150 -444 -149q-147 0 -270 58.5t-195 160.5l-22 31q-104 152 -74 352zM698 643l187 129l129 -186l-187 -129z" />
<glyph unicode="&#xfb42;" horiz-adv-x="1425" d="M141 308q0 128 50.5 236.5t138.5 211.5q154 180 344 325q-174 55 -400 88l-20 31l152 105q244 -35 425 -97l15 -6l49 35q291 205 655 326l21 -31l-152 -105q-285 -96 -526 -241q211 -84 332 -209q27 -27 49 -57l20 -31q80 -113 82 -251t-73 -267q-84 -145 -203 -230h-2 l-150 -106q-166 -115 -360 -115q-135 0 -227.5 34t-147.5 120q-72 106 -72 234zM325 497.5q-40 -167.5 37 -304.5q86 -137 357 -138q139 0 280 70q74 70 131 170q74 125 74 258t-71 246q-16 23 -37 43q-129 131 -357 217l-10 2q-131 -115 -227 -230q-137 -166 -177 -333.5z M608 532l187 129l129 -186l-187 -129z" />
<glyph unicode="&#xfb43;" horiz-adv-x="1277" d="M124 759.5q-3 131.5 59.5 256.5t176.5 205l152 106l2 2q72 49 147.5 79t157.5 41t144.5 14t159 3t151.5 4q137 403 360 570q6 4 13 8l151 106q102 72 200.5 74t147.5 -67q33 -47 35 -100.5t-20.5 -105.5t-67.5 -106.5t-102.5 -103.5t-126.5 -100l-152 -105l-2 -2 q-88 -61 -178 -108q-68 -35 -141 -58l-29 -96q-23 -84 -68 -274.5t-91 -349t-103 -294.5q-82 -188 -203 -272l-2 -2l-150 -104q-80 -55 -165 -56q-98 0 -152 76q-59 88 -18 221q43 139 178 234l2 2l149 104q20 14 45 31l23 -31l-82 -57q-57 -47 -102 -119t-60 -152 q-12 -78 21 -120q41 -53 127 -54q43 0 86 15q76 84 131 209q57 135 103 293.5t91 349t68 274.5l41 141l-10 -2q-80 -8 -240 -7t-281.5 -16.5t-232.5 -72.5q-131 -127 -162 -306t53 -314q14 -18 33 -37l21 -29l-152 -106q-23 23 -43 51l-20 28q-70 98 -73 229.5zM686 995 l187 129l129 -186l-187 -129zM1425 1487l17 2q117 25 219 78q51 25 102 57q141 111 210 227.5t16 194.5q-31 43 -104 45t-144 -31q-189 -180 -316 -573z" />
<glyph unicode="&#xfb44;" horiz-adv-x="1509" d="M88 399q23 127 119 209q18 14 37 29l151 106h2q150 104 340 105q111 0 189 -68l20 -30l-151 -105q-78 68 -187 68q-135 0 -258 -58q-72 -78 -90 -180q-23 -131 41 -217q59 -82 165.5 -127t240.5 -45q213 0 405 107q197 172 236 397q37 209 -70 358q-76 104 -203 162.5 t-282 58.5q-219 0 -418 -112l-131 -90l-21 28q31 27 64 49l151 107q221 156 484 156q160 0 290.5 -63.5t210.5 -170.5q135 -186 97 -407q-41 -231 -244 -406q-31 -27 -64 -49l-151 -107q-223 -156 -483 -155q-279 0 -422 184q-92 119 -68 266zM690 432l187 129l129 -186 l-187 -129z" />
<glyph unicode="&#xfb45;" horiz-adv-x="1257" d="M106.5 1234q14.5 159 116.5 306l150 107l22 -31q-92 -135 -113.5 -288.5t42.5 -248.5q53 -78 190 -98q199 -29 469 53l45 166q154 557 512 807l152 107q59 43 127 75q104 49 190 34t129 -79q49 -84 20.5 -191.5t-116.5 -227t-198.5 -225t-225.5 -185.5l-152 -107 q-8 -6 -14 -10q-164 -113 -324 -190q-111 -416 -213 -650q-80 -188 -202 -272v-2l-152 -104q-78 -55 -164 -56q-98 0 -153 78q-47 68 -37 156t67.5 166.5t131.5 130.5q23 16 48 33.5t56 39t47 33.5q20 14 45 31l21 -31l-82 -57q-59 -49 -106.5 -123t-56.5 -150.5t23 -117.5 q39 -53 125 -54q45 0 88 15q76 84 129 209q102 236 213 651l-18 -8q-319 -115 -553 -80q-145 23 -217 123q-76 106 -61.5 265zM549 700l187 129l129 -186l-187 -129zM1151 1096l20 8q168 72 342 186q258 199 395.5 421t69.5 321q-33 51 -119.5 57t-168.5 -35 q-27 -12 -52 -26q-301 -254 -438 -752z" />
<glyph unicode="&#xfb46;" horiz-adv-x="1402" d="M-35 244l150 106l22 -31q8 -55 35 -90q66 -88 199 -129t250 -41q242 0 405 80q8 8 16 17q166 176 177 411q4 127 -58 221q-18 27 -41 48q-133 117 -311 116q-74 0 -127 -14l-20 31l149 104q53 14 127 14q102 0 186 -36l62 51q121 98 121 231q0 72 -41 123 q-86 113 -269 113q-156 0 -299 -74q-113 -104 -151 -215l-152 -106l-20 30q25 70 83 142.5t140 130.5l152 104l2 2q174 121 374 121q195 0 295 -137q55 -74 56 -160q0 -133 -119 -231l-78 -64l-115 -80q43 -25 86 -61q39 -35 66 -74q80 -113 74 -256q-8 -233 -177 -410 q-39 -41 -86 -73l-151 -107q-182 -127 -485 -127q-129 0 -268.5 47t-207.5 148q-43 61 -51 125zM542 534l187 129l129 -186l-187 -129z" />
<glyph unicode="&#xfb47;" horiz-adv-x="1558" d="M-20 -858q106 166 166.5 339t83 318.5t44 287.5t81 298t165.5 299l152 107l20 -31q-106 -143 -165.5 -299t-81 -299.5t-44 -288.5t-83 -318t-166.5 -337l-152 -107zM88 750q66 162 248 290l151 105q227 160 510 160q156 0 283 -61.5t203 -168.5l20 -31q117 -166 78 -378 q-23 -135 -104.5 -254t-202.5 -205l-152 -107h-2q-215 -152 -469 -151l-20 31l151 104q203 0 392 104q197 172 235 402q37 203 -68 364q-76 100 -199.5 157.5t-273.5 57.5q-233 0 -432 -110q-127 -111 -176 -234l-151 -104zM848 643l187 129l129 -186l-187 -129z" />
<glyph unicode="&#xfb48;" horiz-adv-x="1490" d="M111 1034l151 107q135 84 273.5 124t308.5 40q348 0 508 -230l22 -28v-3q92 -131 92 -301q0 -152 -59 -307q-72 -190 -238 -407l-151 -105l-21 31q166 215 238 405q59 156 59 308q0 160 -82 286q-164 215 -497 215q-170 0 -309.5 -39.5t-274.5 -123.5zM579 643l187 129 l129 -186l-187 -129z" />
<glyph unicode="&#xfb49;" horiz-adv-x="1429" d="M156 633q51 180 157.5 332.5t253.5 255.5l150 106h2q188 131 409 160q121 14 214.5 -14.5t144.5 -100.5q41 -59 45 -137t-29 -150q-63 -137 -227 -251l-152 -105v-2q-27 -18 -55 -35q-303 -180 -672 -186l-22 31l151 104q356 6 650 174q137 117 176 258q14 47 10 101.5 t-31 87.5q-94 117 -332 88q-176 -20 -333 -111q-246 -209 -338 -530q-78 -272 39 -441q63 -88 172.5 -136t240.5 -48q217 0 406 125l37 24l20 -28q-8 -8 -18 -15l-150 -104l-2 -2q-195 -135 -422 -135q-143 0 -255.5 54t-184.5 155q-137 197 -55 475zM747 1044l187 129 l129 -186l-187 -129z" />
<glyph unicode="&#xfb4a;" horiz-adv-x="1867" d="M-199 49l152 107l10 -15q53 -59 189 -59q63 0 133 29q96 109 147 301q78 293 117 555l151 104l21 -29q-39 -262 -117 -555q-68 -260 -217 -364l-151 -105q-14 -10 -29 -20q-92 -51 -187 -51q-135 0 -192 65zM344 965q23 16 45 32l152 107q287 201 680 201q348 0 510 -230 l20 -28q92 -133 92 -304q0 -152 -59 -307q-72 -190 -238 -407l-151 -105l-21 31q166 215 238 405q59 156 59 308q0 160 -82 286q-164 215 -497 215q-360 0 -635 -170l-90 -65zM977 643l187 129l129 -186l-187 -129z" />
<glyph unicode="&#xfb4b;" horiz-adv-x="595" d="M88 -45l328 1245l151 105l21 -29l-328 -1247l-151 -105zM445 1614l168 116l118 -168l-168 -116z" />
<glyph unicode="&#xfb4c;" horiz-adv-x="1585" d="M23 -29q53 115 135 172l151 107q66 47 149 53t173 -22.5t172 -64.5t185.5 -81t174.5 -65q84 102 142.5 235t68.5 273q18 205 -88 368q-80 104 -198.5 163.5t-260.5 59.5q-158 0 -303 -75q-201 -182 -223 -441l-149 -106l-23 31q14 150 93 280.5t202 216.5l151 107 q176 123 383 123q145 0 267.5 -62.5t199.5 -173.5v-2h2l21 -31q119 -168 100 -383q-16 -176 -102 -339.5t-199 -262.5q-14 -10 -28 -22l-152 -105q-82 20 -202 71.5t-210 93.5t-197.5 65.5t-189.5 1.5q-41 -49 -59 -127l-152 -105zM559 1479l152 104h665l23 -31l-152 -104 h-665z" />
<glyph unicode="&#xfb4d;" horiz-adv-x="1427" d="M18 154l152 104q164 -174 438 -174q205 0 391 104q197 172 238 402q35 203 -70 364q-76 100 -198.5 157.5t-274.5 57.5q-240 0 -448 -137l-41 -28l-21 30q8 6 19 15l151 104q217 152 469 152q158 0 284 -61.5t202 -168.5l20 -31q117 -166 80 -378q-25 -135 -105.5 -254 t-203.5 -205l-152 -107q-217 -152 -469 -151q-274 0 -440 174zM471 1479l152 104h665l23 -31l-152 -104h-665z" />
<glyph unicode="&#xfb4e;" horiz-adv-x="1509" d="M88 399q23 127 119 209q18 14 37 29l151 106h2q150 104 340 105q111 0 189 -68l20 -30l-151 -105q-78 68 -187 68q-135 0 -258 -58q-72 -78 -90 -180q-23 -131 41 -217q59 -82 165.5 -127t240.5 -45q213 0 405 107q197 172 236 397q37 209 -70 358q-76 104 -203 162.5 t-282 58.5q-219 0 -418 -112l-131 -90l-21 28q31 27 64 49l151 107q221 156 484 156q160 0 290.5 -63.5t210.5 -170.5q135 -186 97 -407q-41 -231 -244 -406q-31 -27 -64 -49l-151 -107q-223 -156 -483 -155q-279 0 -422 184q-92 119 -68 266zM586 1479l152 104h665l23 -31 l-152 -104h-665z" />
<glyph unicode="&#xfb4f;" horiz-adv-x="2037" d="M139 274q14 193 97 362t213 277l149 105l23 -29q-129 -109 -212 -277.5t-98 -361.5q-8 -129 49 -227q51 -63 127 -64q35 0 68 11q66 80 121 213q125 311 143 751q6 152 26.5 276t61.5 248.5t117 227t182 178.5h2l150 104q55 39 119 70q178 88 365.5 92t364.5 -83 t302 -259l20 -30l-149 -107q-127 174 -303 261t-363.5 82t-365.5 -91q-20 -10 -39 -21q-166 -145 -235.5 -364t-82.5 -508q-4 -102 -12 -190q39 35 82 63l149 107h2q219 156 484 155q215 0 372 -108l21 -31l-152 -107q-156 109 -372 109q-213 0 -404 -104 q-182 -162 -219 -369q-33 -184 64 -334q76 -100 202.5 -158.5t282.5 -58.5q258 0 475 149l21 -30l-150 -107q-219 -147 -475 -147q-205 0 -355.5 98t-183.5 260q-70 -160 -170 -231l-149 -105q-68 -47 -146 -47q-84 0 -139 78l-20 29q-70 100 -60 243z" />
</font>
</defs>
</svg>
