<?xml version="1.0" encoding="utf-8"?>
<!-- Generator: Adobe Illustrator 21.0.0, SVG Export Plug-In . SVG Version: 6.00 Build 0)  -->
<svg version="1.1" id="Layer_1" xmlns="http://www.w3.org/2000/svg" xmlns:xlink="http://www.w3.org/1999/xlink" x="0px" y="0px"
	 viewBox="0 0 800 600" style="enable-background:new 0 0 800 600;" xml:space="preserve">
<style type="text/css">
	.st0{fill-rule:evenodd;clip-rule:evenodd;fill:none;}
	.st1{fill-rule:evenodd;clip-rule:evenodd;}
</style>
<g>
	<polygon class="st0" points="303,204 495.8,204 495.8,396.8 303,396.8 303,204 	"/>
	<polygon class="st1" points="442,322.4 355.3,322.4 355.3,235.7 442,235.7 442,322.4 	"/>
	<polygon class="st0" points="441.4,321.8 356,321.8 356,236.3 441.4,236.3 441.4,321.8 	"/>
	<path class="st1" d="M379,240.9c-6.9,2.7-13.5,6.9-18.5,13.3l0-13.3H379L379,240.9z"/>
	<path class="st1" d="M436.9,245.8c-4.7-1.1-8.8,0.9-12.5,3.1c-7.9-6.7-20.6-3.7-29.2-0.6c-4.8,2-11.6,5.7-11.4,11.9
		c0,2.1,1.5,4,3.3,5c1.3,0.8,2.9,1.2,4.2,2c0.2,0.1,0.2,0.3,0.1,0.5c-0.9,0.8-2,0.9-3.1,1.2c-4.9,0.9-9.5,2.5-13.9,4.5
		c-2.1,1-4.1,2.1-6,3.4c-2.7-1.7-5.4-3.7-7.8-6.2v-13.4c4.3-6.5,11-11.4,17.7-14.2l5-2.1h53.6V245.8L436.9,245.8z"/>
	<path class="st1" d="M422.8,249.6c-11.9,7.1-18.9,19.5-24.3,30.9c-8.5,1-17.9,0.8-25.7-1.7c5-5.7,11.8-7.6,18.4-9.6
		c0.7-0.3,1.8-0.8,1.8-1.7c-0.1-1.1-1.3-1.6-2-2.4c-1.6-1.7-1.9-4.4-1.2-6.7c2.2-6.6,9.3-9.6,15.2-11.1
		C410.8,245.8,418.1,245.9,422.8,249.6L422.8,249.6z"/>
	<path class="st1" d="M436.9,247.4v12.9c-9,10.2-20,16-32.1,19.2c5.2-9.8,10.9-19.4,19.7-27.6c1.4,1.8,1.9,4.4,1.1,6.7
		c-0.6,2-2,4.3-4.2,4.9c-0.8,0.2-1.8,0-2.2,0.9c-0.1,0.3-0.1,0.6,0,0.9c0.3,0.5,0.8,0.6,1.3,0.6c3.5-0.3,5.7-4.1,6.6-7
		c0.9-2.9,0-6-1.3-8.4C429,248.2,432.7,246.4,436.9,247.4L436.9,247.4z"/>
	<path class="st1" d="M436.8,301c-7.1,4.9-15.4,7.8-24.6,6.2c-2.8-0.5-5.5-1.2-8.2-2c4.8-4.3,9.3-9.1,9.4-15.6
		c-0.2-2-0.5-4.2-2.3-5.4c-0.4-0.1-0.8-0.1-1.1,0c-0.4,0.2-0.6,0.6-0.6,1c0.1,0.9,1.1,1.5,1.6,2.3c1.2,2.1,0.5,5-0.3,7.1
		c-1.6,3.8-5,7.2-8.4,10.1c-4.1-1.8-8.1-4-11.8-6.5c5.8-4.8,9.8-10.7,13.2-16.7c12.4-2.6,23.6-8,33.2-17.5V301L436.8,301z"/>
	<path class="st1" d="M366.9,277.7c-2.4,2-4.6,4.3-6.4,6.7l0-11.7C362.5,274.6,364.6,276.4,366.9,277.7L366.9,277.7z"/>
	<path class="st1" d="M397.7,282.2c-2.4,5.2-4.8,10.4-9,14.9c-3.8-2.4-7.8-5.3-12.7-4.2c-1.4,0.4-2.9,1.4-3.5,2.8
		c-0.5,1.3-0.4,3,0.5,4c1.9,2,4.4,2.5,7.1,2.6c3.4,0,6.3-1.2,8.9-3c3.6,2.4,7.2,4.9,11,6.9c-6.3,3.3-13.5,5.4-21.2,4.2
		c-5.7-0.9-12.1-5.3-13.3-11.2c-1.5-7.3,1.7-13.7,6.1-19.1C379.5,282.8,388.9,283.1,397.7,282.2L397.7,282.2z"/>
	<path class="st1" d="M387.5,298c-3.3,2.5-8.6,3.5-12.4,1.3c-1-0.7-1.4-1.8-1.1-3c0.5-1.5,2-2,3.4-2.2
		C381.3,294,384.3,296.2,387.5,298L387.5,298z"/>
	<path class="st1" d="M385.5,312.5c5.9-0.6,11.1-2.7,16.1-5.4c7,3.7,15.8,6.5,24,3.7c4.2-1.3,7.9-3.7,11.3-6.7v13.2h-76.4v-14.3
		C367.2,310,375.6,313.5,385.5,312.5L385.5,312.5z"/>
	<polygon class="st1" points="364,337.1 354.5,337.1 354.5,336.2 364,336.2 364,337.1 	"/>
	<path class="st1" d="M335.3,341.8l0.2,0.6l-1,0.5c-0.4-1.2-1.6-2.4-2.8-2.6c-1.4-0.2-2.7,0.2-3.5,1.3c-0.6,0.8-0.6,2.1-0.1,2.9
		c2.4,3.4,8.7,3.9,8,9.2c-0.2,1.7-1.8,3.4-3.5,3.9c-1.9,0.7-4.4,0.5-6-0.8c-0.9-0.7-1.5-1.6-1.8-2.6c0.4-0.1,0.8-0.2,1.2-0.3
		c0.4,1.1,1.5,2.4,2.7,2.7c1.8,0.5,3.6,0.1,4.8-1.4c0.6-0.9,0.6-2.2,0.2-3.1c-2-3.3-6.4-3.4-8-7c-0.5-1.6,0-3.4,1.2-4.5
		c1.5-1.4,3.9-1.8,5.9-1.1C333.7,339.9,334.7,340.8,335.3,341.8L335.3,341.8z"/>
	<polygon class="st1" points="320.7,340.8 313.9,340.8 313.8,347.4 319.8,347.4 319.8,348.5 313.9,348.5 313.9,356.5 320.7,356.5 
		320.7,357.6 311.5,357.6 311.5,339.6 320.7,339.6 320.7,340.8 	"/>
	<polygon class="st1" points="351.1,340.8 346,340.8 346,357.6 343.6,357.6 343.6,340.8 338.6,340.8 338.6,339.6 351.1,339.6 
		351.1,340.8 	"/>
	<polygon class="st1" points="364.4,340.8 357.5,340.8 357.5,347.4 363.4,347.4 363.4,348.5 357.5,348.5 357.5,356.5 364.4,356.5 
		364.4,357.6 355.1,357.6 355.1,339.6 364.4,339.6 364.4,340.8 	"/>
	<polygon class="st1" points="379.2,340.8 372.4,340.8 372.4,347.4 378.3,347.4 378.3,348.5 372.4,348.5 372.4,356.5 379.1,356.5 
		379.1,357.6 369.9,357.6 369.9,339.6 379.2,339.6 379.2,340.8 	"/>
	<polygon class="st1" points="394.6,356.4 401.4,356.5 401.4,357.6 392.2,357.6 392.2,339.6 394.6,339.6 394.6,356.4 	"/>
	<path class="st1" d="M420.4,357.6h-2.8c-1.1-2.6-2.2-5.2-3.3-7.8l-0.1-0.1h-5.7l-3.5,7.8l-1.6,0l8.2-18h0.9L420.4,357.6
		L420.4,357.6z"/>
	<path class="st1" d="M425.7,352.4c0.2,1.6,0.9,3.1,2.4,4c1.4,0.9,3.7,0.8,5.1-0.2c2.2-1.6,2.4-4.1,2.3-6.7v-9.8h1.3l0,12.8
		c-0.2,2.3-1.9,4.6-4.2,5.3c-2.5,0.8-5.6,0.5-7.5-1.6c-1.3-1.3-1.7-3-1.8-4.9v-11.6h2.4L425.7,352.4L425.7,352.4z"/>
	<path class="st1" d="M451.5,340.3c3.3,1.3,5.3,4.7,5.2,8.3c0,3.3-1.8,6.5-4.9,8c-2.6,1.5-6.1,0.8-9.3,1v-18
		C445.5,339.8,448.9,339.1,451.5,340.3L451.5,340.3z"/>
	<polygon class="st1" points="470.7,340.8 463.9,340.8 463.9,347.4 469.8,347.4 469.8,348.5 463.9,348.5 463.9,356.5 470.7,356.5 
		470.7,357.6 461.5,357.6 461.5,339.6 470.7,339.6 470.7,340.8 	"/>
	<path class="st1" d="M485.8,341.6c1,1.3,1.1,3.4,0.3,4.8c-0.7,1.2-1.9,1.8-3.1,2.1l0,0.2l4.2,8.9l-2.4,0l-4.1-8.6l-0.1-0.1h-2.3
		v8.7h-2.3v-18C479.6,339.8,483.6,338.9,485.8,341.6L485.8,341.6z"/>
	<path class="st0" d="M453.3,344.4c1.3,3.2,1.1,7.7-1.4,10.3c-1.8,1.9-4.4,1.8-7,1.7v-15.7C448.3,340.5,451.8,341.1,453.3,344.4
		L453.3,344.4z"/>
	<path class="st0" d="M484.2,342.7c0.5,1,0.5,2.4-0.1,3.3c-1.2,2-3.4,2-5.6,1.9v-7.1C480.7,340.8,483.1,340.6,484.2,342.7
		L484.2,342.7z"/>
	<polygon class="st0" points="409,348.5 411.4,343.2 413.7,348.5 409,348.5 	"/>
</g>
</svg>
